# xmcd CD database file
#
# Track frame offsets:
#	187
#	15395
#	33562
#	49262
#	70187
#	95055
#	111825
#	131500
#	148200
#
# Disc length: 2348 seconds
#
# Revision: 4
# Processed by: cddbd v1.5.2PL0 Copyright (c) Steve Scherf et al.
# Submitted via: CDex 1.70beta2
#
DISCID=80092a09
DTITLE=Paul Butterfield's Better Days - It All Comes Back
DYEAR=1973
DGENRE=Rock
TTITLE0=Too Many Drivers
TTITLE1=It's Getting Harder To Survive
TTITLE2=If You Live
TTITLE3=Win Or Lose
TTITLE4=Small Town Talk
TTITLE5=Take Your Pleasure Where You Find It
TTITLE6=Poor Boy
TTITLE7=Louisiana Flood
TTITLE8=It All Comes Back
EXTD=YEAR: 1973
EXTT0=
EXTT1=
EXTT2=
EXTT3=
EXTT4=
EXTT5=
EXTT6=
EXTT7=
EXTT8=
PLAYORDER=
